<?xml version="1.0" standalone="no"?>
<!DOCTYPE svg PUBLIC "-//W3C//DTD SVG 20010904//EN"
 "http://www.w3.org/TR/2001/REC-SVG-20010904/DTD/svg10.dtd">
<svg version="1.0" xmlns="http://www.w3.org/2000/svg"
 width="298.000000pt" height="298.000000pt" viewBox="0 0 298.000000 298.000000"
 preserveAspectRatio="xMidYMid meet">
<metadata>
Created by potrace 1.14, written by Peter Selinger 2001-2017
</metadata>
<g transform="translate(0.000000,298.000000) scale(0.100000,-0.100000)"
fill="#000000" stroke="none">
<path d="M1200 2695 c0 -15 6 -25 14 -25 8 0 20 -17 26 -37 7 -21 18 -51 25
-68 7 -16 22 -55 34 -85 14 -38 20 -47 20 -30 0 14 -8 45 -19 69 -11 24 -20
49 -20 56 0 23 -59 145 -70 145 -5 0 -10 -11 -10 -25z"/>
<path d="M1187 2593 c-4 -37 -7 -95 -7 -128 0 -58 -2 -61 -33 -75 -26 -12 -33
-22 -35 -50 -3 -29 -11 -41 -53 -69 -109 -74 -178 -184 -219 -346 -43 -170
-28 -427 36 -623 31 -96 106 -238 150 -284 19 -20 34 -40 34 -44 0 -4 -18 -22
-40 -41 -22 -19 -40 -43 -40 -52 0 -13 -18 -25 -62 -41 -35 -12 -80 -32 -101
-45 l-37 -22 -62 31 c-49 25 -78 32 -139 34 -205 10 -373 -88 -457 -265 -36
-75 -37 -82 -37 -188 0 -60 3 -118 7 -127 7 -17 33 -18 344 -18 l337 0 -5 125
-6 125 30 -18 c57 -33 68 -56 68 -148 l0 -84 1020 0 1020 0 0 275 0 274 -77
37 c-207 100 -413 79 -575 -57 -47 -39 -68 -43 -68 -13 0 8 -9 33 -20 55 -31
61 -96 97 -220 123 -14 3 -32 18 -41 34 -19 33 -67 58 -140 72 -29 6 -54 12
-57 14 -2 3 7 20 21 38 84 113 101 196 92 468 -8 252 -25 391 -60 497 -59 175
-148 268 -289 304 -26 6 -51 19 -56 29 -13 24 -88 35 -109 16 -21 -19 -65 -29
-90 -21 -18 5 -21 14 -21 58 0 29 5 86 10 127 6 41 6 78 1 83 -4 4 -11 -23
-14 -60z m-87 -462 c11 -22 5 -47 -18 -73 -19 -23 -44 -23 -72 0 -20 16 -21
21 -11 41 11 19 60 49 83 51 4 0 12 -9 18 -19z m-103 -148 c2 -6 -2 -16 -9
-22 -82 -68 -96 -73 -84 -33 12 37 47 73 69 70 11 -2 22 -8 24 -15z m487 -15
c23 -33 20 -72 -9 -107 -34 -40 -85 -57 -121 -39 -40 19 -68 63 -67 103 2 57
15 65 104 65 69 0 80 -2 93 -22z m-319 -23 c33 -32 32 -75 -1 -114 -63 -75
-174 -40 -174 55 0 48 4 51 69 69 67 19 79 18 106 -10z m-220 -229 c43 -30 65
-79 65 -148 0 -30 -4 -38 -18 -38 -26 0 -69 49 -87 99 -15 43 -21 146 -7 125
4 -6 25 -24 47 -38z"/>
<path d="M1380 1925 c-14 -16 -5 -35 16 -35 15 0 20 35 5 44 -5 3 -14 -1 -21
-9z"/>
<path d="M1087 1903 c-4 -3 -7 -15 -7 -25 0 -22 26 -24 34 -2 10 25 -10 45
-27 27z"/>
</g>
</svg>
